<?xml version="1.0" encoding="UTF-8" standalone="no"?>
<!-- Created with Inkscape (http://www.inkscape.org/) -->

<svg
   xmlns:dc="http://purl.org/dc/elements/1.1/"
   xmlns:cc="http://creativecommons.org/ns#"
   xmlns:rdf="http://www.w3.org/1999/02/22-rdf-syntax-ns#"
   xmlns:svg="http://www.w3.org/2000/svg"
   xmlns="http://www.w3.org/2000/svg"
   xmlns:sodipodi="http://sodipodi.sourceforge.net/DTD/sodipodi-0.dtd"
   xmlns:inkscape="http://www.inkscape.org/namespaces/inkscape"
   width="24"
   height="24"
   viewBox="0 0 6.3499999 6.3500002"
   version="1.1"
   id="svg902"
   inkscape:version="0.92.4 (unknown)"
   sodipodi:docname="citorva_logo.svg"
   inkscape:export-filename="/home/venceslas/citorva_logo_64.png"
   inkscape:export-xdpi="256"
   inkscape:export-ydpi="256">
  <defs
     id="defs896" />
  <sodipodi:namedview
     id="base"
     pagecolor="#ffffff"
     bordercolor="#666666"
     borderopacity="1.0"
     inkscape:pageopacity="0.0"
     inkscape:pageshadow="2"
     inkscape:zoom="4.4322917"
     inkscape:cx="-55.255391"
     inkscape:cy="22.665466"
     inkscape:document-units="mm"
     inkscape:current-layer="layer1"
     showgrid="false"
     units="px"
     inkscape:window-width="1366"
     inkscape:window-height="716"
     inkscape:window-x="0"
     inkscape:window-y="339"
     inkscape:window-maximized="1" />
  <metadata
     id="metadata899">
    <rdf:RDF>
      <cc:Work
         rdf:about="">
        <dc:format>image/svg+xml</dc:format>
        <dc:type
           rdf:resource="http://purl.org/dc/dcmitype/StillImage" />
        <dc:title />
      </cc:Work>
    </rdf:RDF>
  </metadata>
  <g
     inkscape:label="Calque 1"
     inkscape:groupmode="layer"
     id="layer1"
     transform="translate(0,-290.64998)">
    <rect
       style="opacity:1;fill:#e9eff1;fill-opacity:1;stroke:none;stroke-width:8.46666622;stroke-linecap:square;stroke-linejoin:round;stroke-miterlimit:4;stroke-dasharray:none;stroke-dashoffset:1.50236213;stroke-opacity:1"
       id="rect1520"
       width="6.3499999"
       height="6.3499999"
       x="0"
       y="290.64999"
       ry="1.9658198e-06" />
    <path
       inkscape:connector-curvature="0"
       style="fill:#02080a;fill-opacity:1;stroke:none;stroke-width:0.59596264;stroke-linecap:square;stroke-linejoin:bevel;stroke-miterlimit:4;stroke-dasharray:none"
       d="m 3.1319772,291.44421 a 2.383756,2.3839447 0 0 0 -0.157936,0.008 c 0.0172,0.007 0.0345,0.0138 0.0516,0.0214 0.507751,0.22568 0.98862,0.65855 1.414406,1.08437 l -0.0011,0.002 a 1.787817,1.7879585 0 0 1 0.0011,9.8e-4 1.787817,1.7879585 0 0 1 0.159098,0.18616 c -0.0326,-0.21205 -0.07939,-0.41044 -0.145928,-0.58347 -0.07569,-0.1968 -0.174936,-0.3592 -0.302408,-0.47928 v -8e-5 c -0.0182,-0.0172 -0.037,-0.0335 -0.05639,-0.0489 -0.01,-0.008 -0.02011,-0.0146 -0.0301,-0.0219 a 2.383756,2.3839447 0 0 0 -0.931955,-0.16922 z m -0.780057,0.17693 c -0.025,7.1e-4 -0.0498,0.002 -0.07439,0.005 -0.01,10e-4 -0.01969,0.003 -0.0295,0.005 a 2.383756,2.3839447 0 0 0 -0.75809,0.50818 2.383756,2.3839447 0 0 0 -0.136689,0.15147 c 0.01799,-0.008 0.0358,-0.0152 0.0541,-0.0223 0.518598,-0.19948 1.164718,-0.23347 1.76686,-0.23347 v 0.004 a 1.787817,1.7879585 0 0 1 0.24618,0.0159 c -0.172904,-0.12682 -0.346311,-0.23394 -0.515629,-0.30919 -0.192665,-0.0856 -0.377679,-0.13037 -0.552726,-0.12514 z m 2.355893,0.37962 c 0.008,0.0185 0.01569,0.0369 0.02299,0.0558 0.199465,0.51865 0.233442,1.16482 0.233442,1.76701 h -0.003 a 1.787817,1.7879585 0 0 1 -0.01561,0.24445 c 0.12645,-0.17255 0.233281,-0.34561 0.308366,-0.51458 0.08559,-0.19268 0.13029,-0.37771 0.125059,-0.55277 -7.94e-4,-0.025 -0.003,-0.0498 -0.005,-0.0744 -0.0011,-0.01 -0.003,-0.02 -0.005,-0.03 a 2.383756,2.3839447 0 0 0 -0.507546,-0.75699 2.383756,2.3839447 0 0 0 -0.153211,-0.13859 z m -2.608764,0.39963 c -0.212552,0.0326 -0.411488,0.0795 -0.584882,0.14616 -0.224893,0.0865 -0.404918,0.20379 -0.52814003,0.35881 -0.007,0.008 -0.01281,0.0177 -0.01929,0.0265 a 2.383756,2.3839447 0 0 0 -0.172698,0.92891 2.383756,2.3839447 0 0 0 0.009,0.1722 c 0.008,-0.0192 0.0154,-0.0386 0.02389,-0.0577 0.22533403,-0.50704 0.65721803,-0.98728 1.08239703,-1.41263 a 1.787817,1.7879585 0 0 1 0.0021,-0.002 1.787817,1.7879585 0 0 1 0.187834,-0.16035 z m -0.693855,1.18463 c -0.125429,0.17148 -0.231341,0.3433 -0.305974,0.51123 -0.08559,0.19268 -0.13028203,0.37771 -0.12505103,0.55277 7.94e-4,0.025 0.0021,0.0498 0.005,0.0744 0.0021,0.0141 0.004,0.0282 0.007,0.0423 a 2.383756,2.3839447 0 0 0 0.50362103,0.74505 2.383756,2.3839447 0 0 0 0.156047,0.14122 h 7.4e-5 c -0.008,-0.0199 -0.01701,-0.0397 -0.02479,-0.06 -0.199465,-0.51865 -0.233294,-1.16467 -0.233294,-1.76686 l 0.0021,-8e-5 a 1.787817,1.7879585 0 0 1 0.01511,-0.23994 z m 4.142264,0.0372 c -0.007,0.0174 -0.014,0.0349 -0.0218,0.0522 -0.225661,0.50779 -0.658577,0.98878 -1.084357,1.41459 l -7.94e-4,-8.5e-4 a 1.787817,1.7879585 0 0 1 -0.0011,10e-4 1.787817,1.7879585 0 0 1 -0.184264,0.15787 c 0.211001,-0.0326 0.408456,-0.0793 0.580736,-0.14559 0.19676,-0.0757 0.359181,-0.17494 0.479251,-0.30243 0.0172,-0.0182 0.0335,-0.037 0.0489,-0.0564 0.008,-0.0107 0.01611,-0.022 0.0241,-0.033 a 2.383756,2.3839447 0 0 0 0.167537,-0.93227 2.383756,2.3839447 0 0 0 -0.008,-0.15525 z m -3.793661,1.28313 c 0.0326,0.2106 0.07919,0.4077 0.145349,0.57969 0.07569,0.1968 0.174926,0.35928 0.302405,0.47936 0.0182,0.0172 0.037,0.0334 0.0564,0.0488 0.0114,0.009 0.0235,0.0171 0.0353,0.0256 a 2.383756,2.3839447 0 0 0 0.932316,0.16675 2.383756,2.3839447 0 0 0 0.154877,-0.009 c -0.0181,-0.007 -0.0363,-0.0146 -0.0543,-0.0226 -0.507761,-0.22569 -0.98863,-0.65856 -1.414416,-1.08437 a 1.787817,1.7879585 0 0 1 -5.29e-4,-5.6e-4 1.787817,1.7879585 0 0 1 -0.157565,-0.18406 z m 1.626612,1.29149 c 3.9e-5,3e-5 1.08e-4,4e-5 1.4e-4,8e-5 v -8e-5 a 2.383756,2.3839447 0 0 1 -1.4e-4,0 z m 1.621011,-0.84123 c -0.01939,0.008 -0.0386,0.0164 -0.0583,0.024 -0.518597,0.19948 -1.164789,0.23332 -1.766939,0.23332 v -0.002 a 1.787817,1.7879585 0 0 1 -0.241298,-0.0153 c 0.171804,0.12575 0.34397,0.23209 0.512205,0.30686 0.192666,0.0856 0.377682,0.1303 0.552727,0.12507 0.025,-7.2e-4 0.0498,-0.002 0.07439,-0.005 0.0114,-10e-4 0.02281,-0.004 0.0342,-0.005 a 2.383756,2.3839447 0 0 0 0.752489,-0.50592 2.383756,2.3839447 0 0 0 0.14048,-0.15511 z"
       id="path1018" />
  </g>
</svg>
