<?xml version="1.0" encoding="UTF-8" standalone="no"?>
<!-- Created with Inkscape (http://www.inkscape.org/) -->

<svg
   width="128"
   height="128"
   viewBox="0 0 128 128"
   version="1.1"
   id="svg902"
   xmlns="http://www.w3.org/2000/svg"
   xmlns:svg="http://www.w3.org/2000/svg">
   <style>
   
   #bg {
      fill: #e9eff1;
   }

   #fg {
      fill: #02080a;
   }

   @media (prefers-color-scheme: dark) {

   #bg {
      fill: #06191f;
   }

   }

   </style>
   <rect id="bg" width="128" height="128" x="0" y="0" />
   <path id="fg" d="
   m 63.13277,16.0094 a 48.050515,48.054319 0 0 0 -3.183592,0.161259 c 0.346709,
   0.141103 0.695433,0.278174 1.040126,0.431371 10.234981,4.54914 19.928088,
   13.274708 28.510861,21.858167 l -0.02217,0.04031 a 36.037887,36.040739 0 0 1
   0.02217,0.01975 36.037887,36.040739 0 0 1 3.207015,3.752517 C 92.050046,
   37.998389 91.106878,33.999346 89.765639,30.511497 88.23992,26.544505
   86.23937,23.27093 83.669856,20.85042 v -0.0016 C 83.30299,20.502111
   82.924029,20.173544 82.533176,19.863119 82.331601,19.701859 82.127809,
   19.56882 81.926435,19.42167 A 48.050515,48.054319 0 0 0 63.140571,16.010609
   Z m -15.723984,3.566463 c -0.503937,0.01431 -1.003843,0.04032 -1.499515,
   0.100787 -0.201575,0.02016 -0.396901,0.06047 -0.594646,0.100787 A 48.050515,
   48.054319 0 0 0 30.033441,30.021066 48.050515,48.054319 0 0 0 27.278135,
   33.07432 c 0.362633,-0.16126 0.721638,-0.306394 1.09052,-0.449512 10.453629,
   -4.021015 23.47778,-4.706167 35.615446,-4.706167 v 0.08063 a 36.037887,
   36.040739 0 0 1 4.962368,0.320504 C 65.46116,25.763403 61.965712,23.604134
   58.552688,22.087283 54.669047,20.361803 50.939631,19.459352 47.411124,
   19.564776 Z m 47.488867,7.652182 c 0.16126,0.372914 0.316271,0.743811
   0.463421,1.124788 4.020712,10.454677 4.705606,23.479836 4.705606,35.61847 h
   -0.0605 a 36.037887,36.040739 0 0 1 -0.314654,4.927496 c 2.548914,-3.478173
   4.702354,-6.966627 6.215884,-10.372637 1.72528,-3.883943 2.62632,-7.613682
   2.52087,-11.14245 -0.016,-0.503937 -0.0605,-1.003843 -0.10079,-1.499717
   -0.0222,-0.201574 -0.0605,-0.403149 -0.10078,-0.604724 A 48.050515,48.054319
   0 0 0 97.995878,30.02026 48.050515,48.054319 0 0 0 94.90753,27.226634 Z m
   -52.586109,8.055534 c -4.284513,0.657134 -8.294562,1.60252 -11.789748,
   2.946218 -4.533276,1.743622 -8.162127,4.107893 -10.645972,7.232705 -0.141103,
   0.16126 -0.258218,0.356788 -0.388838,0.534174 a 48.050515,48.054319 0 0 0
   -3.481157,18.724485 48.050515,48.054319 0 0 0 0.181418,3.471118 C 16.348506,
   67.805256 16.497672,67.4142 16.668809,67.029193 21.210975,56.808544
   29.916668,47.128115 38.487206,38.554131 a 36.037887,36.040739 0 0 1 0.04233,
   -0.04031 36.037887,36.040739 0 0 1 3.78626,-3.232252 z M 28.325175,59.162736
   c -2.528333,3.456604 -4.663252,6.920063 -6.167665,10.305109 -1.725279,
   3.883943 -2.626158,7.613682 -2.520714,11.14245 0.016,0.503937 0.04233,
   1.003843 0.100788,1.499717 0.04233,0.28422 0.08063,0.568441 0.141102,0.852661
   a 48.050515,48.054319 0 0 0 10.151731,15.018331 48.050515,48.054319 0 0 0
   3.145514,2.846636 h 0.0015 C 33.016163,100.42651 32.834544,100.02739
   32.677719,99.618195 28.657007,89.163517 27.9751,76.141382 27.9751,64.002748
   l 0.04233,-0.0016 a 36.037887,36.040739 0 0 1 0.30458,-4.836586 z m
   83.497605,0.749858 c -0.1411,0.35074 -0.2822,0.703496 -0.43943,1.05222
   -4.54876,10.235768 -13.275255,19.931314 -21.857907,28.514571 l -0.016,
   -0.01713 a 36.037887,36.040739 0 0 1 -0.02217,0.02016 36.037887,36.040739 0 0
   1 -3.714298,3.182261 c 4.253248,-0.657134 8.233443,-1.598488 11.706174,
   -2.934728 3.966191,-1.525921 7.240191,-3.526349 9.660491,-6.096226 0.34671,
   -0.366867 0.67528,-0.745827 0.9857,-1.136882 0.16126,-0.215685 0.32474,
   -0.443465 0.4858,-0.665197 a 48.050515,48.054319 0 0 0 3.37711,-18.792215
   48.050515,48.054319 0 0 0 -0.16126,-3.129449 z M 35.352133,85.777262 c
   0.657134,4.245165 1.596271,8.218205 2.92987,11.68509 1.525719,3.966988
   3.526067,7.242178 6.095723,9.662688 0.366866,0.34671 0.745826,0.67326
   1.136882,0.98369 0.229795,0.18141 0.4737,0.34469 0.711559,0.51603 a
   48.050515,48.054319 0 0 0 18.793141,3.36126 48.050515,48.054319 0 0 0
   3.12193,-0.18142 c -0.36485,-0.1411 -0.731716,-0.2943 -1.094551,-0.45556 C
   56.811505,106.7997 47.118397,98.074132 38.535624,89.490875 a 36.037887,
   36.040739 0 0 1 -0.01066,-0.01129 36.037887,36.040739 0 0 1 -3.176114,
   -3.710186 z m 32.7884,26.033188 c 7.86e-4,6e-4 0.0022,8e-4 0.0028,0.002 v
   -0.002 a 48.050515,48.054319 0 0 1 -0.0028,0 z M 100.81603,94.853369 c
   -0.39085,0.16126 -0.77808,0.330583 -1.17518,0.48378 -10.453609,4.021014
   -23.479212,4.703141 -35.617039,4.703141 v -0.04031 a 36.037887,36.040739 0 0
   1 -4.86396,-0.308409 c 3.463136,2.534799 6.933569,4.678349 10.324763,6.185519
   3.883661,1.72548 7.613117,2.62652 11.141583,2.5211 0.503937,-0.0145 1.003843,
   -0.0403 1.499515,-0.10079 0.229796,-0.0202 0.459792,-0.0806 0.689386,-0.10079
   A 48.050515,48.054319 0 0 0 97.983381,97.998541 48.050515,48.054319 0 0 0
   100.8151,94.871914 Z"/>
</svg>
