<?xml version="1.0" encoding="UTF-8" standalone="no"?>
<!-- Created with Inkscape (http://www.inkscape.org/) -->

<svg
   width="1200"
   height="630"
   viewBox="0 0 120 63"
   version="1.1"
   id="svg902"
   xmlns="http://www.w3.org/2000/svg"
   xmlns:svg="http://www.w3.org/2000/svg">
   <style>
   
   #bg {
      fill: #e9eff1;
   }

   #fg {
      fill: #02080a;
   }

   @media (prefers-color-scheme: dark) {

   #bg {
      fill: #06191f;
   }

   }

   </style>
   <rect id="bg" width="120" height="63" x="0" y="0" />
   <path id="fg" d="m 59.512176,4.5049457 a 27.028936,27.031078 0 0 0 -1.790806,0.09071 c 0.195029,0.07937 0.391189,0.156476 0.585083,0.242651 5.757288,2.5589401 11.209767,7.4671673 16.037669,12.2954563 l -0.01247,0.02267 a 20.271703,20.273308 0 0 1 0.01247,0.01111 20.271703,20.273308 0 0 1 1.803981,2.110832 C 75.778458,16.873991 75.247916,14.624486 74.493453,12.662533 73.635221,10.431057 72.50989,8.5896347 71.06451,7.2280718 V 7.2271717 C 70.858144,7.0321447 70.644973,6.8473217 70.425115,6.6727048 70.311728,6.5819948 70.197091,6.5071577 70.083816,6.4243847 A 27.028936,27.031078 0 0 0 59.516563,4.5056257 Z m -8.844912,2.006174 c -0.28347,0.008 -0.564672,0.02268 -0.843494,0.05669 -0.113388,0.01134 -0.22326,0.03401 -0.334495,0.05669 a 27.028936,27.031078 0 0 0 -8.595832,5.7621523 27.028936,27.031078 0 0 0 -1.54989,1.717489 c 0.203987,-0.09071 0.405931,-0.17235 0.61343,-0.252855 5.88028,-2.261865 13.206507,-2.647271 20.034076,-2.647271 v 0.04536 a 20.271703,20.273308 0 0 1 2.791386,0.180287 C 60.821921,9.9916748 58.855692,8.7770618 56.93583,7.9238167 54.75124,6.9532157 52.653403,6.4455767 50.668579,6.5048787 Z m 26.713004,4.3044363 c 0.09071,0.209768 0.177905,0.418402 0.260679,0.632705 2.261695,5.88087 2.646957,13.207664 2.646957,20.035777 h -0.03404 a 20.271703,20.273308 0 0 1 -0.176996,2.77177 c 1.433797,-1.95651 2.64513,-3.918802 3.496508,-5.83472 0.970488,-2.184761 1.477333,-4.28278 1.418016,-6.26775 -0.009,-0.28347 -0.03404,-0.564672 -0.05671,-0.843607 -0.01249,-0.113388 -0.03404,-0.226776 -0.05669,-0.340164 A 27.028936,27.031078 0 0 0 79.123045,12.386208 27.028936,27.031078 0 0 0 77.385816,10.814762 Z M 47.80001,15.346881 c -2.410085,0.369645 -4.665782,0.901435 -6.631861,1.65728 -2.550018,0.980806 -4.591285,2.310734 -5.988475,4.068475 -0.07936,0.09071 -0.14525,0.200697 -0.218726,0.30048 a 27.028936,27.031078 0 0 0 -1.958189,10.532726 27.028936,27.031078 0 0 0 0.10205,1.952541 c 0.09071,-0.217704 0.174619,-0.437677 0.270883,-0.654248 2.555019,-5.749226 7.452066,-11.194573 12.273087,-16.017532 a 20.271703,20.273308 0 0 1 0.02381,-0.02267 20.271703,20.273308 0 0 1 2.129814,-1.818177 z m -7.867484,13.432286 c -1.422215,1.944377 -2.623131,3.892611 -3.469379,5.796737 -0.970488,2.184759 -1.477242,4.282778 -1.417929,6.267749 0.009,0.283469 0.02381,0.564672 0.0567,0.843608 0.02381,0.159875 0.04536,0.319753 0.07936,0.479631 a 27.028936,27.031078 0 0 0 5.710458,8.447974 27.028936,27.031078 0 0 0 1.769386,1.601263 h 8.44e-4 c -0.09071,-0.22564 -0.192874,-0.450149 -0.28109,-0.680326 -2.261693,-5.880869 -2.645274,-13.205962 -2.645274,-20.034077 l 0.02381,-9e-4 a 20.271703,20.273308 0 0 1 0.171328,-2.720632 z m 46.968312,0.421803 c -0.07937,0.197296 -0.158741,0.395724 -0.24719,0.591885 -2.558721,5.757732 -7.467471,11.211582 -12.295308,16.039758 l -0.009,-0.0096 a 20.271703,20.273308 0 0 1 -0.01246,0.01134 20.271703,20.273308 0 0 1 -2.089333,1.790057 c 2.392498,-0.369645 4.631401,-0.899167 6.58485,-1.650817 2.231028,-0.858348 4.072683,-1.98361 5.434134,-3.429194 0.195022,-0.206366 0.379852,-0.419535 0.554461,-0.639507 0.09071,-0.121326 0.18267,-0.249455 0.273268,-0.374182 a 27.028936,27.031078 0 0 0 1.899673,-10.57082 27.028936,27.031078 0 0 0 -0.09071,-1.760348 z M 43.885266,43.750128 c 0.369645,2.387951 0.897919,4.622829 1.648083,6.572991 0.858234,2.231473 1.983451,4.073804 3.42891,5.435367 0.206366,0.195028 0.419537,0.378716 0.639509,0.553336 0.129263,0.102045 0.266462,0.193892 0.400261,0.290272 a 27.028936,27.031078 0 0 0 10.571345,1.890745 27.028936,27.031078 0 0 0 1.75612,-0.10205 c -0.205232,-0.07937 -0.411598,-0.165547 -0.615698,-0.256258 -5.7574,-2.559052 -11.209878,-7.467279 -16.037782,-12.295455 a 20.271703,20.273308 0 0 1 -0.006,-0.0063 20.271703,20.273308 0 0 1 -1.786599,-2.087021 z m 18.44383,14.643952 c 4.43e-4,3.38e-4 0.0012,4.5e-4 0.0016,0.0011 v -0.0011 a 27.028936,27.031078 0 0 1 -0.0016,0 z m 18.38032,-9.538542 c -0.219852,0.09071 -0.437673,0.185956 -0.661049,0.272131 -5.880268,2.261864 -13.207311,2.645568 -20.034971,2.645568 v -0.02267 a 20.271703,20.273308 0 0 1 -2.73603,-0.173484 c 1.948052,1.425853 3.900208,2.631622 5.807791,3.479422 2.184602,0.970601 4.28246,1.477446 6.267262,1.418146 0.28347,-0.0082 0.564672,-0.02267 0.843492,-0.0567 0.129264,-0.01135 0.258639,-0.04534 0.387788,-0.0567 a 27.028936,27.031078 0 0 0 8.532324,-5.736525 27.028936,27.031078 0 0 0 1.592875,-1.758762 z"/>
</svg>
